<svg width="70" height="28" viewBox="0 0 70 28" xmlns="http://www.w3.org/2000/svg" xmlns:xlink="http://www.w3.org/1999/xlink">
    <defs>
        <path id="hhkcglj3la" d="M0 0h10.731v15.237H0z"/>
        <path id="ez9qc0te7c" d="M0 0h2.83v2.24H0z"/>
    </defs>
    <g fill="none" fill-rule="evenodd">
        <rect fill="#FF395A" width="70" height="28" rx="4"/>
        <path d="M16.396 15.241c0 .758-.185 1.406-.554 1.946-.368.54-.913.949-1.634 1.227-.72.278-1.598.417-2.63.417-.986 0-1.83-.15-2.534-.452-.704-.302-1.224-.679-1.56-1.132-.335-.452-.502-.906-.502-1.362 0-.302.107-.56.322-.775.214-.214.486-.322.814-.322.289 0 .51.07.664.212.154.14.302.338.443.593.281.49.618.855 1.01 1.096.393.242.927.362 1.605.362.55 0 1-.122 1.352-.367.352-.244.528-.524.528-.84 0-.482-.183-.834-.548-1.056-.365-.22-.967-.432-1.805-.633-.946-.235-1.715-.481-2.308-.74-.594-.257-1.068-.598-1.423-1.02-.356-.423-.533-.942-.533-1.56 0-.549.164-1.068.492-1.558.329-.49.813-.88 1.454-1.172.64-.291 1.413-.437 2.318-.437.71 0 1.35.074 1.916.221.566.148 1.039.346 1.418.594s.667.522.865.824c.197.302.296.597.296.885 0 .316-.105.574-.316.775-.212.2-.512.301-.9.301-.282 0-.522-.08-.72-.241a4.743 4.743 0 0 1-.678-.724 2.483 2.483 0 0 0-.735-.644c-.281-.16-.663-.241-1.146-.241-.496 0-.909.105-1.237.317-.329.21-.493.474-.493.79 0 .287.12.524.362.708.241.185.567.337.976.458.409.12.972.268 1.69.442.85.208 1.546.456 2.086.745.54.288.949.628 1.227 1.02.278.393.418.84.418 1.343M36.722 13.45v3.652c0 .576-.13 1.009-.392 1.297-.262.288-.607.432-1.036.432-.416 0-.753-.144-1.011-.432-.258-.288-.387-.72-.387-1.297v-4.375c0-.69-.024-1.227-.07-1.61-.048-.382-.175-.695-.383-.94-.208-.244-.536-.367-.985-.367-.899 0-1.49.309-1.776.925-.285.617-.427 1.502-.427 2.655v3.712c0 .57-.13 1-.387 1.292-.258.292-.599.437-1.021.437-.416 0-.756-.145-1.02-.437-.266-.292-.398-.722-.398-1.292V9.247c0-.516.119-.909.357-1.177s.551-.402.94-.402c.376 0 .69.126.94.377.252.251.378.598.378 1.041v.261c.476-.57.985-.988 1.529-1.257a4.033 4.033 0 0 1 1.81-.402c.69 0 1.284.137 1.78.412.496.275.905.691 1.227 1.247.463-.563.959-.98 1.488-1.252a3.8 3.8 0 0 1 1.76-.407c.751 0 1.398.148 1.942.443.543.295.948.717 1.217 1.267.234.496.352 1.277.352 2.343v5.36c0 .577-.131 1.01-.393 1.298-.261.288-.607.432-1.036.432-.416 0-.756-.145-1.02-.437-.265-.292-.398-.722-.398-1.292v-4.617c0-.59-.025-1.062-.075-1.418a1.627 1.627 0 0 0-.408-.895c-.22-.241-.556-.362-1.005-.362-.362 0-.706.107-1.031.322a2.186 2.186 0 0 0-.76.865c-.2.462-.301 1.28-.301 2.454" fill="#FFF"/>
        <g transform="translate(44.435 7.668)">
            <mask id="945mq6ojgb" fill="#fff">
                <use xlink:href="#hhkcglj3la"/>
            </mask>
            <path d="M7.623 7.452c-.234.53-.546.927-.935 1.192a2.205 2.205 0 0 1-1.267.397c-.764 0-1.405-.303-1.921-.91-.516-.606-.774-1.456-.774-2.55 0-1.16.26-2.037.779-2.634.52-.597 1.158-.895 1.916-.895.476 0 .91.139 1.302.417.393.278.7.677.92 1.197.222.52.332 1.141.332 1.866 0 .75-.117 1.39-.352 1.92m2.49-4.867C9.7 1.747 9.139 1.11 8.428.674A4.38 4.38 0 0 0 6.095.02C5.39.02 4.76.17 4.204.468c-.557.298-1.093.766-1.61 1.403v-.332c0-.496-.122-.877-.366-1.142C1.983.132 1.666 0 1.278 0 .881 0 .57.13.341.387.114.645 0 1.036 0 1.56V13.406c0 .597.084 1.051.251 1.363.168.312.51.468 1.026.468.879 0 1.318-.604 1.318-1.81V9.302c.483.61.99 1.073 1.524 1.388.533.315 1.191.473 1.976.473.65 0 1.259-.13 1.825-.388A4.28 4.28 0 0 0 9.394 9.67c.415-.48.742-1.073.98-1.78a7.266 7.266 0 0 0 .357-2.328c0-1.147-.206-2.14-.618-2.977" fill="#FFF" mask="url(#945mq6ojgb)"/>
        </g>
        <path d="M19.351 8.735a1.288 1.288 0 1 1-2.575 0 1.288 1.288 0 0 1 2.575 0M60.031 16.434h-1.27V6.639c0-.556-.128-.971-.382-1.244-.254-.272-.586-.408-.996-.408-.404 0-.73.138-.977.413-.248.275-.372.689-.372 1.24v10.363c0 .587.13 1.013.39 1.276.26.263.687.395 1.28.395H59.6l.431-2.24z" fill="#FFF"/>
        <g transform="translate(60.151 16.434)">
            <mask id="804rl3dy7d" fill="#fff">
                <use xlink:href="#ez9qc0te7c"/>
            </mask>
            <path d="M2.477.321C2.241.107 1.903 0 1.463 0H.458L0 2.24h1.463c.446 0 .786-.103 1.019-.308a1.02 1.02 0 0 0 .348-.803c0-.324-.118-.593-.353-.808" fill="#FFF" mask="url(#804rl3dy7d)"/>
        </g>
        <path d="M23.726 9.378c.174-.51.332-.908.473-1.196.14-.289.29-.483.447-.584.158-.1.38-.15.669-.15.208 0 .407.055.598.165a1.21 1.21 0 0 1 .598 1.04c-.026.129-.07.31-.13.544-.06.235-.134.473-.221.714l-3.58 9.374c-.309.825-.61 1.472-.906 1.94a2.98 2.98 0 0 1-1.171 1.082c-.487.251-1.142.377-1.967.377-.804 0-1.408-.087-1.81-.261-.402-.175-.603-.493-.603-.956 0-.315.095-.558.286-.729.191-.17.475-.256.85-.256.147 0 .292.02.433.06.174.04.325.06.452.06.315 0 .563-.047.744-.14.181-.094.344-.257.488-.488.144-.232.31-.572.498-1.021l.251-.614 3.601-8.96z" fill="#FFF"/>
    </g>
</svg>
